<svg id="Layer_3" enable-background="new 0 0 60 60" height="512" viewBox="0 0 60 60" width="512" xmlns="http://www.w3.org/2000/svg"><path d="m49.58 40.51c.28-.03.54-.18.71-.41.16-.23.22-.51.16-.79-.33-1.54-.93-2.99-1.8-4.33-.15-.24-.4-.4-.68-.45-.27-.04-.56.03-.78.21-.65.51-1.56.46-2.14-.11-.58-.58-.62-1.49-.11-2.14.18-.22.25-.5.21-.78-.05-.28-.21-.53-.45-.68-1.33-.86-2.79-1.47-4.33-1.8-.28-.06-.57 0-.8.16-.23.17-.37.43-.4.71-.09.82-.77 1.43-1.59 1.43s-1.5-.61-1.59-1.43c-.03-.28-.18-.54-.41-.71-.23-.16-.51-.22-.79-.16-1.54.33-3 .94-4.34 1.8-.23.15-.4.4-.44.68-.05.28.03.56.21.78.51.65.46 1.56-.11 2.14-.58.58-1.5.62-2.14.11-.22-.18-.5-.25-.78-.21-.28.05-.53.21-.68.45-.86 1.33-1.47 2.79-1.8 4.33-.06.27 0 .56.16.79.17.23.42.38.71.41.82.09 1.43.77 1.43 1.59s-.61 1.5-1.43 1.59c-.29.03-.54.18-.71.41-.16.23-.22.52-.16.79.33 1.54.94 3 1.8 4.34.15.23.4.39.68.44s.56-.03.78-.21c.64-.51 1.56-.46 2.14.11.57.58.62 1.5.1 2.14-.17.22-.25.5-.2.78.04.28.21.53.44.68 1.34.87 2.8 1.47 4.34 1.8.28.07.56 0 .79-.16.23-.17.38-.42.41-.71.09-.82.77-1.43 1.59-1.43s1.5.61 1.59 1.43c.03.29.17.54.4.71.18.12.38.19.59.19.07 0 .14-.01.21-.03 1.54-.33 3-.93 4.33-1.8.24-.15.4-.4.45-.68s-.03-.56-.21-.78c-.51-.64-.47-1.56.11-2.14.58-.57 1.49-.62 2.14-.11.22.18.5.26.78.21s.53-.21.68-.44c.87-1.34 1.47-2.8 1.8-4.34.06-.28 0-.56-.16-.79-.17-.23-.43-.38-.71-.41-.82-.09-1.43-.77-1.43-1.59s.61-1.5 1.43-1.59zm-12 8.47c-3.79 0-6.88-3.09-6.88-6.88s3.09-6.88 6.88-6.88 6.88 3.09 6.88 6.88-3.09 6.88-6.88 6.88z"/><path d="m9.52 10.77c0 2.73 5.82 5.77 14.19 5.77 4.18 0 7.72-.76 10.22-1.86s3.96-2.55 3.96-3.91c0-2.73-5.82-5.77-14.18-5.77-8.37 0-14.19 3.04-14.19 5.77z"/><path d="m9.52 21.67c0 2.73 5.83 5.77 14.19 5.77s14.18-3.04 14.18-5.78v-7.1c-2.73 2.39-8 3.98-14.18 3.98-6.19 0-11.46-1.59-14.19-3.98z"/><path d="m9.52 32.53c0 2.64 5.45 5.57 13.37 5.76.4-1.54 1.05-3.02 1.94-4.4.43-.68 1.17-1.18 2.01-1.33.21-.03.36-.04.5-.04.26 0 .51.03.75.09-.11-.4-.12-.83-.05-1.25.11-.77.59-1.53 1.31-2 .32-.21.66-.4.99-.58-2.01.42-4.25.66-6.63.66-6.19 0-11.46-1.59-14.19-3.98z"/><path d="m9.52 43.4c0 2.73 5.83 5.77 14.19 5.77.15 0 .3 0 .45-.01-.65-1.22-1.12-2.51-1.41-3.85-.17-.8 0-1.66.48-2.35.26-.36.58-.65.93-.86-.34-.2-.65-.48-.9-.81-.22-.32-.37-.65-.46-1-.33-.01-.66-.02-.98-.04-.04.01-.08.02-.12.02h-.06c-5.35-.31-9.72-1.81-12.12-3.92z"/></svg>