<svg height="512" viewBox="0 0 32 32" width="512" xmlns="http://www.w3.org/2000/svg"><g id="_x31_2"><path d="m9.6533203 8.9384766 6.3988647 2.3642578-1.9096069 3.1826172c-.1855469.3085938-.1904297.6933594-.0126953 1.0078125.1772461.3134765.5097656.5068359.8701172.5068359h2c.2651367 0 .5195313-.1054688.7070313-.2929688l2.7718506-2.7718506c.0032349.0012207.005188.0040283.0084229.005249l7.2026367 2.6601563c.1865234.0654297.3803711.0976563.5737305.0976563.3549805 0 .7075195-.1083984 1.0043945-.3193359.458496-.3242188.7319335-.8544922.7319335-1.4160157 0-2.7998047-1.9033203-5.203125-4.628418-5.84375l-12.7583007-3.0019531-1.78125-2.671875c-.1855469-.2783203-.4975586-.4453125-.8320313-.4453125h-1c-.2998047 0-.5834961.1347656-.7734375.3662109s-.2661133.5361329-.2070312.8300782l1 5c.067871.3408203.3081054.6210937.633789.7421875z"/><path d="m14.1679688 20.4453125-1.703125 2.5546875h6.5351562v-3h-3.999939c-.3343506 0-.6466064.1671143-.8320922.4453125z"/><path d="m29 19h-8c-.5523071 0-1 .4476929-1 1v6h-1v-2h-7v3c0 .5522461.4476929 1 1 1h1c0 1.1030273.8969727 2 2 2s2-.8969727 2-2h6c0 1.1030273.8969727 2 2 2s2-.8969727 2-2h1c.5523071 0 1-.4477539 1-1v-7c0-.5523071-.4476929-1-1-1zm-13 10c-.5512695 0-1-.4487305-1-1s.4487305-1 1-1 1 .4487305 1 1-.4487305 1-1 1zm10 0c-.5512695 0-1-.4487305-1-1s.4487305-1 1-1 1 .4487305 1 1-.4487305 1-1 1z"/><path d="m11.4472656 13.1054688-4-2c-.28125-.140625-.6132813-.140625-.8945313 0l-4 2c-.034729.017395-.0620117.0438843-.0940552.0648193l4.5413209 2.2706299 4.5413208-2.2706299c-.0320435-.0209351-.0593262-.0474243-.0940552-.0648193z"/><path d="m2 19c0 .3789063.2138672.7250977.5527344.8945313l3.9472656 2.1054687v-5.690918l-4.5-2.25z"/><path d="m12 14.059082-4.5 2.25v5.690918l3.9472656-2.1054688c.3388672-.1694335.5527344-.5156249.5527344-.8945312z"/><path d="m16.3686523 4.9735718 5.598938 1.3172607-2.1677856-2.8904419c-.1884766-.2519531-.4848633-.4003906-.7998047-.4003906h-2c-.3466797 0-.668457.1796875-.8505859.4746094s-.1987305.6630859-.0439453.9726563z"/></g></svg>